<?xml version="1.0" encoding="UTF-8" standalone="no"?>
<svg
   xmlns:dc="http://purl.org/dc/elements/1.1/"
   xmlns:cc="http://creativecommons.org/ns#"
   xmlns:rdf="http://www.w3.org/1999/02/22-rdf-syntax-ns#"
   xmlns:svg="http://www.w3.org/2000/svg"
   xmlns="http://www.w3.org/2000/svg"
   xmlns:sodipodi="http://sodipodi.sourceforge.net/DTD/sodipodi-0.dtd"
   xmlns:inkscape="http://www.inkscape.org/namespaces/inkscape"
   width="45mm"
   height="12mm"
   viewBox="0 0 45 12"
   version="1.1"
   id="svg8"
   inkscape:version="1.0.1 (3bc2e813f5, 2020-09-07)"
   sodipodi:docname="logo.svg"
   inkscape:export-filename="D:\xampp\htdocs\pizza\img\logo2.png"
   inkscape:export-xdpi="95"
   inkscape:export-ydpi="95">
  <defs
     id="defs2" />
  <sodipodi:namedview
     id="base"
     pagecolor="#000000"
     bordercolor="#666666"
     borderopacity="1.0"
     inkscape:pageopacity="0"
     inkscape:pageshadow="2"
     inkscape:zoom="1.3678161"
     inkscape:cx="274.08007"
     inkscape:cy="-1.9725479"
     inkscape:document-units="mm"
     inkscape:current-layer="text835"
     inkscape:document-rotation="0"
     showgrid="false"
     inkscape:window-width="1920"
     inkscape:window-height="1020"
     inkscape:window-x="-8"
     inkscape:window-y="-8"
     inkscape:window-maximized="1" />
  <metadata
     id="metadata5">
    <rdf:RDF>
      <cc:Work
         rdf:about="">
        <dc:format>image/svg+xml</dc:format>
        <dc:type
           rdf:resource="http://purl.org/dc/dcmitype/StillImage" />
        <dc:title></dc:title>
      </cc:Work>
    </rdf:RDF>
  </metadata>
  <g
     inkscape:label="Warstwa 1"
     inkscape:groupmode="layer"
     id="layer1">
    <g
       aria-label="ð“¢ð“¸ð“»ð“®ð“·ð“½ð“¸"
       id="text835"
       style="font-style:normal;font-weight:normal;font-size:10.5833px;line-height:1.25;font-family:sans-serif;white-space:pre;inline-size:59.318;fill:#000000;fill-opacity:1;stroke:none;stroke-width:0.264583">
      <path
         d="m 7.2010073,4.5792832 q -0.242878,-0.377237 -0.527098,-0.552936 -0.279052,-0.175699 -0.666624,-0.175699 -0.397907,0 -0.63045,0.206705 -0.227376,0.201537 -0.227376,0.578774 0,0.21704 0.08268,0.403075 0.08785,0.180867 0.30489,0.408242 0.217041,0.222208 0.656289,0.563271 0.542601,0.423746 0.775144,0.702798 0.237711,0.279052 0.356566,0.599444 0.124023,0.315226 0.124023,0.728636 0,0.403075 -0.19637,0.816485 -0.191202,0.41341 -0.589109,0.7596412 -0.39274,0.346231 -0.992184,0.5529356 -0.594277,0.201537 -1.333248,0.201537 -0.656289,0 -1.121375,-0.196369 -0.459919,-0.2015376 -0.682127,-0.5115946 -0.21704,-0.3152262 -0.21704,-0.6562892 0,-0.434081 0.232543,-0.769976 0.237711,-0.341064 0.656289,-0.532266 0.418577,-0.19637 0.842323,-0.19637 0.320393,0 0.589109,0.124023 0.273884,0.118856 0.537433,0.372069 l -0.744138,0.439249 q -0.129191,-0.186035 -0.273884,-0.289387 -0.144694,-0.108521 -0.335896,-0.108521 -0.191202,0 -0.351398,0.165365 -0.155029,0.165364 -0.155029,0.428913 0,0.279051 0.155029,0.52193 0.160196,0.237711 0.454751,0.3824042 0.299722,0.144694 0.692462,0.144694 0.439248,0 0.754473,-0.155029 0.315225,-0.1601962 0.475422,-0.4237452 0.160196,-0.268717 0.160196,-0.583942 0,-0.299723 -0.124023,-0.563272 -0.124023,-0.263549 -0.366901,-0.511595 -0.237711,-0.253213 -0.713133,-0.625282 -0.41341,-0.320393 -0.640785,-0.563272 -0.227376,-0.248046 -0.341064,-0.511595 -0.10852,-0.263549 -0.10852,-0.589109 0,-0.50126 0.356566,-0.976682 0.361734,-0.475421 0.992185,-0.754473 0.635618,-0.28422 1.400426,-0.28422 0.645954,0 1.095537,0.217041 0.454752,0.21704 0.7854798,0.702797 z"
         style="fill:#ffffff;fill-opacity:1;stroke-width:0.264583"
         id="path843" />
      <path
         d="m 11.447238,4.9691672 c -0.07579,0.172254 -0.165364,0.308335 -0.268717,0.408243 -0.09991,0.09646 -0.199815,0.160196 -0.299722,0.191202 -0.161919,0.02067 -0.296277,0.06029 -0.403075,0.118855 -0.106797,0.05512 -0.215317,0.132634 -0.32556,0.232543 -0.110243,0.09646 -0.2273759,0.227376 -0.3513989,0.39274 -0.120578,0.165364 -0.234266,0.358289 -0.341063,0.578774 -0.106798,0.217041 -0.191203,0.446139 -0.253214,0.687295 -0.06201,0.237711 -0.09302,0.468531 -0.09302,0.692462 0,0.306612 0.06201,0.53571 0.186034,0.687294 0.127468,0.151584 0.316948,0.227376 0.568439,0.227376 0.2583809,0 0.4960919,-0.07924 0.7131329,-0.237711 0.220485,-0.158474 0.401352,-0.38585 0.542601,-0.682127 0.141248,-0.296277 0.225652,-0.635618 0.253213,-1.018022 -0.158474,-0.08268 -0.280774,-0.229099 -0.366901,-0.439249 -0.08613,-0.213595 -0.129191,-0.477144 -0.129191,-0.790647 0.172254,-0.21704 0.391017,-0.44097 0.656289,-0.671791 0.268717,-0.234266 0.449583,-0.351399 0.5426,-0.351399 0.272162,0.05857 0.408243,0.51504 0.408243,1.369421 0.206705,-0.02411 0.389295,-0.06718 0.547768,-0.12919 0.158474,-0.06545 0.306613,-0.158471 0.444416,-0.279052 0.137803,-0.120578 0.303168,-0.308335 0.496093,-0.563271 v 0 c -0.437525,0.568439 -0.794093,1.148935 -1.09037,1.359085 -0.292833,0.21015 -0.211873,0.484035 -0.490924,0.50126 -0.148139,0.544323 -0.38585,1.03697 -0.713133,1.477941 -0.327283,0.437526 -0.702797,0.7751442 -1.126542,1.0128552 -0.423746,0.237711 -0.8492139,0.3565656 -1.2764039,0.3565656 -0.502983,0 -0.88711,-0.1326356 -1.1523808,-0.3979066 -0.261827,-0.265271 -0.39274,-0.6511212 -0.39274,-1.1575482 0,-0.296277 0.05684,-0.608058 0.170532,-0.935341 0.117133,-0.330728 0.296277,-0.661456 0.5374328,-0.992184 0.241156,-0.330728 0.52193,-0.625283 0.842323,-0.883664 0.323838,-0.261827 0.683849,-0.48059 1.0800339,-0.656289 0.334173,-0.148139 0.664902,-0.237711 0.992185,-0.268716 z"
         style="fill:#ffffff;fill-opacity:1;stroke-width:0.264583"
         id="path845"
         sodipodi:nodetypes="ccccccccscscscccccccscccccsscscscccc" />
      <path
         d="m 15.384971,6.2094052 q 0.687294,-1.059363 1.266068,-1.627802 0.583942,-0.568439 0.976682,-0.568439 0.129191,0 0.21704,0.02584 0.09302,0.02067 0.170532,0.07751 0.08268,0.05168 0.211873,0.19637 0.103352,0.118855 0.201537,0.180867 0.09818,0.06201 0.21704,0.06201 0.186035,0 0.315226,-0.09302 0.134358,-0.09818 0.501259,-0.454751 l 0.361734,0.325561 q -0.589109,0.687294 -0.857826,0.966346 -0.268716,0.273884 -0.459919,0.382404 -0.191202,0.10852 -0.366901,0.10852 -0.180867,0 -0.325561,-0.06718 -0.144693,-0.07235 -0.284219,-0.248046 -0.155029,-0.175699 -0.201537,-0.222208 -0.04651,-0.05168 -0.108521,-0.07751 -0.06201,-0.03101 -0.144693,-0.03101 -0.09302,0 -0.206705,0.05168 -0.160197,0.07751 -0.372069,0.279052 -0.206705,0.19637 -0.470254,0.552936 -0.258382,0.356566 -0.387572,0.604612 -0.191203,0.356567 -0.397908,0.945676 -0.134358,0.366902 -0.392739,1.204057 l -1.080034,0.52193 h -0.423746 q 0.397908,-1.426264 0.682127,-2.578645 0.28422,-1.152381 0.30489,-1.436601 l -0.05168,-0.01034 q -0.356567,0.330728 -0.940508,0.940508 -0.578775,0.604613 -0.945676,1.033526 l -0.397907,-0.387572 q 0.635618,-0.687295 1.250565,-1.302242 0.620116,-0.620116 1.255734,-1.152381 l 1.136878,-0.506427 h 0.372069 q -0.490925,1.477941 -0.692462,2.304761 z"
         style="fill:#ffffff;fill-opacity:1;stroke-width:0.264583"
         id="path847" />
      <path
         d="m 20.270765,6.5988932 q -0.02584,0.08268 -0.04651,0.227375 -0.0155,0.139526 -0.0155,0.258381 0,0.449584 0.165364,0.645954 0.165364,0.191202 0.547769,0.191202 0.206705,0 0.408242,-0.05168 0.201538,-0.05168 0.439249,-0.1757 0.242878,-0.12919 0.506427,-0.341063 0.268717,-0.211873 0.754474,-0.676959 l 0.444415,0.397907 q -0.862993,0.930173 -1.576126,1.374589 -0.707965,0.444416 -1.493444,0.444416 -0.769976,0 -1.178219,-0.387572 -0.403075,-0.387572 -0.403075,-1.142046 0,-0.661456 0.335896,-1.333247 0.335896,-0.671792 0.961179,-1.266069 0.625282,-0.599445 1.224727,-0.878496 0.604613,-0.279052 1.188554,-0.279052 0.50126,0 0.764809,0.248046 0.263549,0.242878 0.263549,0.661456 0,0.490925 -0.397907,0.93534 -0.39274,0.439249 -1.142046,0.744139 -0.749306,0.30489 -1.751825,0.403075 z m 0.08785,-0.387572 q 0.139526,-0.180867 0.279052,-0.30489 0.144694,-0.129191 0.242879,-0.160197 0.625283,-0.02067 0.997352,-0.149861 0.377237,-0.134358 0.527098,-0.330728 0.155028,-0.19637 0.155028,-0.434081 0,-0.211872 -0.134358,-0.346231 -0.134358,-0.139526 -0.366901,-0.139526 -0.496092,0 -0.950844,0.485757 -0.449583,0.485757 -0.749306,1.379757 z"
         style="fill:#ffffff;fill-opacity:1;stroke-width:0.264583"
         id="path849" />
      <path
         d="m 25.903333,4.4062582 c -0.237711,0.220485 -0.551214,0.533988 -0.940508,0.940508 -0.38585,0.403075 -1.243529,1.441602 -1.48813,1.727544 L 23.03028,6.6764032 c 0.423745,-0.458197 1.429562,-1.57596 1.839527,-1.985925 0.41341,-0.413411 0.831988,-0.797538 1.255734,-1.152381 l 1.136877,-0.506427 h 0.37207 c -0.327283,0.985294 -0.558104,1.753548 -0.692462,2.304761 h 0.06718 c 0.940508,-1.464161 1.801779,-2.196241 2.583813,-2.196241 0.279052,0 0.490925,0.07579 0.635618,0.227375 0.144694,0.151584 0.217041,0.37896 0.217041,0.682127 0,0.110243 -0.02239,0.266994 -0.06718,0.470254 -0.04134,0.20326 -0.146415,0.590832 -0.315225,1.162716 -0.127468,0.427191 -0.211873,0.732081 -0.253214,0.91467 -0.04134,0.179145 -0.06201,0.320393 -0.06201,0.423745 0,0.258381 0.08268,0.387572 0.248046,0.387572 0.08268,0 0.173977,-0.02412 0.273884,-0.07235 0.103353,-0.05167 0.239434,-0.151581 0.408243,-0.299723 0.172254,-0.148139 0.243647,-0.497597 0.512364,-0.773204 l 0.478734,0.438563 c -0.234266,0.265271 -0.395099,0.565462 -0.608694,0.768722 -0.213595,0.199815 -0.404797,0.360011 -0.573606,0.480589 -0.165365,0.120578 -0.322116,0.21704 -0.470254,0.289387 -0.144694,0.07235 -0.280775,0.1223 -0.408243,0.149861 -0.124023,0.02756 -0.261827,0.04134 -0.41341,0.04134 -0.261827,0 -0.475422,-0.07751 -0.640786,-0.232543 -0.161919,-0.158474 -0.242878,-0.358289 -0.242878,-0.599444 0,-0.199815 0.02756,-0.427191 0.08268,-0.682127 0.05857,-0.254937 0.155029,-0.587387 0.289387,-0.997352 0.172254,-0.533988 0.273884,-0.868161 0.30489,-1.00252 0.03445,-0.137803 0.05168,-0.254936 0.05168,-0.351398 0,-0.09302 -0.02756,-0.168809 -0.08268,-0.227376 -0.05167,-0.05857 -0.12402,-0.08785 -0.21704,-0.08785 -0.08268,0 -0.160196,0.01723 -0.232543,0.05168 -0.110243,0.05167 -0.229099,0.142968 -0.356567,0.273884 -0.20326,0.20326 -0.432358,0.496092 -0.687294,0.878496 -0.165364,0.248047 -0.322115,0.556382 -0.470254,0.925006 -0.144693,0.365179 -0.31867,0.875051 -0.52193,1.529617 l -1.080034,0.52193 h -0.423746 c 0.265271,-0.950843 0.492647,-1.810391 0.682127,-2.578645 0.189479,-0.768254 0.291109,-1.247121 0.30489,-1.436601 z"
         style="fill:#ffffff;fill-opacity:1;stroke-width:0.264583"
         id="path851"
         sodipodi:nodetypes="ccccscccccssscccssccccccccscscccscsccsccccscc" />
      <path
         d="m 35.775238,6.5629312 c -0.389295,0.42719 -0.7183,0.757918 -0.987017,0.992184 -0.268717,0.230821 -0.51504,0.401352 -0.738971,0.511595 -0.22393,0.106797 -0.453028,0.160196 -0.687294,0.160196 -0.320393,0 -0.559826,-0.0913 -0.7183,-0.273884 -0.158474,-0.182589 -0.237711,-0.471976 -0.237711,-0.868161 0,-0.241156 0.05512,-0.571884 0.165364,-0.992184 0.110243,-0.423745 0.249769,-0.881942 0.418578,-1.374589 l -0.03617,-0.01034 -1.284397,1.994187 -0.478734,-0.438563 1.980172,-2.465127 -0.03101,-0.05168 c -0.440971,0 -0.809595,0.0052 -1.105872,0.0155 l 0.04134,-0.237711 c 0.05167,-0.06545 0.142968,-0.146413 0.273884,-0.242878 0.130913,-0.09646 0.225653,-0.151584 0.28422,-0.165364 h 0.733803 c 0.04479,-0.344509 0.130914,-0.694185 0.258381,-1.049029 0.223931,-0.258381 0.437526,-0.459919 0.640786,-0.604612 0.206705,-0.144693 0.377236,-0.21704 0.511595,-0.21704 h 0.480589 c 0,0.196369 -0.03445,0.41341 -0.103353,0.651121 -0.0689,0.237711 -0.21704,0.651121 -0.444416,1.24023 0.527098,-0.01378 0.926728,-0.04651 1.19889,-0.09819 0.272161,-0.05167 0.549491,-0.158471 0.831988,-0.320393 l 0.248046,0.299723 c -0.206705,0.244601 -0.384127,0.4203 -0.532266,0.527098 -0.144693,0.106797 -0.273884,0.173976 -0.387572,0.201537 H 34.504 c -0.230821,0.775144 -0.408242,1.42971 -0.532265,1.963698 -0.120578,0.533988 -0.180867,0.911225 -0.180867,1.131711 0,0.117133 0.01723,0.206705 0.05168,0.268716 0.03789,0.06201 0.09991,0.09302 0.186035,0.09302 0.161919,0 0.349676,-0.08613 0.563271,-0.258381 0.217041,-0.172254 1.311861,-0.708668 1.621918,-1.035951 z"
         style="fill:#ffffff;fill-opacity:1;stroke-width:0.264583"
         id="path853"
         sodipodi:nodetypes="cccssscccccccccsccccscscsccccccscsccc" />
      <path
         d="m 39.884227,2.6163212 q -0.113688,0.258381 -0.268717,0.408243 -0.149861,0.144693 -0.299722,0.191202 -0.242879,0.03101 -0.403075,0.118855 -0.160197,0.08268 -0.325561,0.232543 -0.165364,0.144694 -0.351398,0.39274 -0.180867,0.248046 -0.341064,0.578774 -0.160196,0.325561 -0.253213,0.687295 -0.09302,0.356566 -0.09302,0.692462 0,0.459918 0.186035,0.687294 0.191202,0.227376 0.568439,0.227376 0.387572,0 0.713132,-0.237711 0.330728,-0.237711 0.542601,-0.682127 0.211873,-0.444416 0.253214,-1.018022 -0.237711,-0.124024 -0.366902,-0.439249 -0.12919,-0.320393 -0.12919,-0.790647 0.258381,-0.32556 0.656288,-0.671791 0.403075,-0.351399 0.542601,-0.351399 0.408243,0.08785 0.408243,1.369421 0.310057,-0.03617 0.547768,-0.12919 0.237711,-0.09818 0.444416,-0.279052 0.206705,-0.180867 0.496092,-0.563271 l 0.377237,0.351398 q -0.656289,0.852659 -1.100705,1.167884 -0.439248,0.315225 -0.857826,0.341063 -0.222208,0.816485 -0.713132,1.477941 -0.490925,0.656289 -1.126543,1.012855 -0.635618,0.356566 -1.276404,0.356566 -0.754473,0 -1.15238,-0.397907 -0.39274,-0.397907 -0.39274,-1.157548 0,-0.444416 0.170532,-0.935341 0.175699,-0.496092 0.537433,-0.992184 0.361734,-0.496092 0.842323,-0.883664 0.485757,-0.39274 1.080034,-0.656289 0.50126,-0.222208 0.992184,-0.268716 z"
         style="fill:#ffffff;fill-opacity:1;stroke-width:0.264583"
         id="path855" />
    </g>
    <path
       style="color:#000000;font-style:normal;font-variant:normal;font-weight:normal;font-stretch:normal;font-size:medium;line-height:normal;font-family:sans-serif;font-variant-ligatures:normal;font-variant-position:normal;font-variant-caps:normal;font-variant-numeric:normal;font-variant-alternates:normal;font-variant-east-asian:normal;font-feature-settings:normal;font-variation-settings:normal;text-indent:0;text-align:start;text-decoration:none;text-decoration-line:none;text-decoration-style:solid;text-decoration-color:#000000;letter-spacing:normal;word-spacing:normal;text-transform:none;writing-mode:lr-tb;direction:ltr;text-orientation:mixed;dominant-baseline:auto;baseline-shift:baseline;text-anchor:start;white-space:normal;shape-padding:0;shape-margin:0;inline-size:0;clip-rule:nonzero;display:inline;overflow:visible;visibility:visible;opacity:1;isolation:auto;mix-blend-mode:normal;color-interpolation:sRGB;color-interpolation-filters:linearRGB;solid-color:#000000;solid-opacity:1;vector-effect:none;fill:#000000;fill-opacity:1;fill-rule:nonzero;stroke:none;stroke-width:0.264583px;stroke-linecap:butt;stroke-linejoin:miter;stroke-miterlimit:4;stroke-dasharray:none;stroke-dashoffset:0;stroke-opacity:1;color-rendering:auto;image-rendering:auto;shape-rendering:auto;text-rendering:auto;enable-background:accumulate;stop-color:#000000;stop-opacity:1"
       d="m 117.82031,50.759766 c 0,0 -0.0391,0.261718 -0.0391,0.261718 0,0 0.002,0 0.002,0 0,0 0.002,0.002 0.002,0.002 10e-4,1.6e-4 0.006,-2.22e-4 0.008,0 0.008,0.0017 0.0174,0.0045 0.0332,0.0098 0.0406,0.01353 0.0726,0.04019 0.0742,0.04492 7.9e-4,0.0024 0.006,0.009 -0.008,0.04102 -0.0137,0.03198 -0.0485,0.08565 -0.11719,0.154297 -0.11328,0.113277 -0.33919,0.197234 -0.63281,0.24414 -0.29362,0.04691 -0.65081,0.06167 -1.01758,0.06445 -0.73353,0.0056 -1.49495,-0.04009 -1.9668,0.117188 -0.29448,0.09816 -0.52113,0.298635 -0.73437,0.484375 -0.21324,0.185739 -0.41414,0.357447 -0.64258,0.433594 -0.33038,0.110125 -0.69369,0.08824 -1.07813,0.04492 -0.38443,-0.04332 -0.78672,-0.108592 -1.1914,-0.05078 -1.06336,0.151908 -1.96298,0.653028 -2.77539,0.923828 -0.68212,0.227375 -1.70203,0.198254 -2.72071,0.121094 -1.01867,-0.07716 -2.0336,-0.198982 -2.7539,-0.126953 -1.72937,0.172937 -3.342681,0.891532 -5.033204,0.916015 h -0.0059 -0.0039 c -0.726178,0.06601 -1.519324,-0.173875 -2.310547,0.002 -0.721192,0.160264 -1.243161,0.720375 -1.847656,0.921875 -2.841162,0.947049 -6.127157,0.407911 -9.152344,0.912109 -11.832753,1.972126 -23.29982,5.751893 -34.867187,8.716797 l 0.06641,0.255859 c 11.578997,-2.967884 23.037739,-6.743269 34.84375,-8.710937 2.963439,-0.493907 6.266493,0.05179 9.193359,-0.923828 0.692709,-0.230905 1.206689,-0.77575 1.820313,-0.91211 0.698139,-0.155143 1.474828,0.07145 2.267578,0.002 1.761902,-0.02552 3.384528,-0.750757 5.056638,-0.917968 0.66465,-0.06646 1.67898,0.05118 2.70508,0.128906 1.0261,0.07772 2.06519,0.118897 2.82617,-0.134766 0.84811,-0.282698 1.72579,-0.768863 2.72852,-0.912109 0.35202,-0.05029 0.73331,0.0066 1.125,0.05078 0.39168,0.04414 0.79662,0.07691 1.1914,-0.05469 0.29449,-0.09816 0.51918,-0.298636 0.73243,-0.484375 0.21324,-0.18574 0.41609,-0.357448 0.64453,-0.433594 0.36787,-0.122621 1.14184,-0.09984 1.88476,-0.105469 0.37147,-0.0028 0.73797,-0.0155 1.05664,-0.06641 0.31868,-0.05091 0.59629,-0.135344 0.7793,-0.318359 0.0842,-0.08423 0.139,-0.159623 0.17188,-0.236329 0.0272,-0.06357 0.0245,-0.128781 0.0137,-0.189453 0.0712,0.0017 0.0706,0.0059 0.17773,0.0059 v -0.265625 c -0.303,0 -0.44149,-0.0094 -0.48828,-0.01367 -0.006,-5.27e-4 -0.007,3.31e-4 -0.01,0 -0.003,-5e-4 -0.004,-0.0017 -0.006,-0.002 -3e-4,-3.6e-5 -0.002,2.5e-5 -0.002,0 z"
       id="path860" />
  </g>
</svg>
